HIERARCHY
ROOT Hips
{
	OFFSET -0.001795 -0.223333 0.028219
	CHANNELS 6 Xposition Yposition Zposition Zrotation Yrotation Xrotation 
	JOINT LeftUpLeg
	{
		OFFSET 0.069520 -0.091406 -0.006815
		CHANNELS 3 Zrotation Yrotation Xrotation
		JOINT LeftLeg
		{
			OFFSET 0.034277 -0.375199 -0.004496
			CHANNELS 3 Zrotation Yrotation Xrotation
			JOINT LeftFoot
			{
				OFFSET -0.013596 -0.397961 -0.043693
				CHANNELS 3 Zrotation Yrotation Xrotation
				JOINT LeftToe
				{
					OFFSET 0.026358 -0.055791 0.119288
					CHANNELS 3 Zrotation Yrotation Xrotation
					End Site
					{
						OFFSET 0.000000 0.000000 0.000000
					}
				}
			}
		}
	}
	JOINT RightUpLeg
	{
		OFFSET -0.067670 -0.090522 -0.004320
		CHANNELS 3 Zrotation Yrotation Xrotation
		JOINT RightLeg
		{
			OFFSET -0.038290 -0.382569 -0.008850
			CHANNELS 3 Zrotation Yrotation Xrotation
			JOINT RightFoot
			{
				OFFSET 0.015774 -0.398415 -0.042312
				CHANNELS 3 Zrotation Yrotation Xrotation
				JOINT RightToe
				{
					OFFSET -0.025372 -0.048144 0.123348
					CHANNELS 3 Zrotation Yrotation Xrotation
					End Site
					{
						OFFSET 0.000000 0.000000 0.000000
					}
				}
			}
		}
	}
	JOINT Spine
	{
		OFFSET -0.002533 0.108963 -0.026696
		CHANNELS 3 Zrotation Yrotation Xrotation
		JOINT Spine1
		{
			OFFSET 0.005487 0.135180 0.001092
			CHANNELS 3 Zrotation Yrotation Xrotation
			JOINT Spine2
			{
				OFFSET 0.001457 0.052922 0.025425
				CHANNELS 3 Zrotation Yrotation Xrotation
				JOINT Neck
				{
					OFFSET -0.002778 0.213870 -0.042857
					CHANNELS 3 Zrotation Yrotation Xrotation
					JOINT Head
					{
						OFFSET 0.005152 0.064970 0.051349
						CHANNELS 3 Zrotation Yrotation Xrotation
						End Site
						{
							OFFSET 0.000000 0.000000 0.000000
						}
					}
				}
				JOINT LeftShoulder
				{
					OFFSET 0.078845 0.121749 -0.034090
					CHANNELS 3 Zrotation Yrotation Xrotation
					JOINT LeftArm
					{
						OFFSET 0.090977 0.030469 -0.008868
						CHANNELS 3 Zrotation Yrotation Xrotation
						JOINT LeftForeArm
						{
							OFFSET 0.259612 -0.012772 -0.027456
							CHANNELS 3 Zrotation Yrotation Xrotation
							JOINT LeftHand
							{
								OFFSET 0.249234 0.008986 -0.001171
								CHANNELS 3 Zrotation Yrotation Xrotation
								End Site
								{
									OFFSET 0.000000 0.000000 0.000000
								}
							}
						}
					}
				}
				JOINT RightShoulder
				{
					OFFSET -0.081759 0.118833 -0.038615
					CHANNELS 3 Zrotation Yrotation Xrotation
					JOINT RightArm
					{
						OFFSET -0.096012 0.032551 -0.009143
						CHANNELS 3 Zrotation Yrotation Xrotation
						JOINT RightForeArm
						{
							OFFSET -0.253742 -0.013329 -0.021401
							CHANNELS 3 Zrotation Yrotation Xrotation
							JOINT RightHand
							{
								OFFSET -0.255298 0.007772 -0.005559
								CHANNELS 3 Zrotation Yrotation Xrotation
								End Site
								{
									OFFSET 0.000000 0.000000 0.000000
								}
							}
						}
					}
				}
			}
		}
	}
}
MOTION
Frames: 6
Frame Time: 0.050000
0.000000 0.939608 0.000000 -0.987478 7.051962 0.417605 3.754300 -0.151528 -0.833336 -3.301667 -0.596631 29.601727 0.895637 3.870040 4.263204 0.000000 0.000000 0.000000 0.322346 1.733219 -18.696897 3.977792 -0.697213 17.080937 -0.990999 -6.204627 13.309643 0.000000 0.000000 0.000000 1.305305 -0.700292 11.707143 7.257352 -0.799430 -26.857916 -2.606374 -6.737678 28.958514 -3.272582 2.933222 -16.924702 0.000000 0.000000 0.000000 -26.542780 3.305101 -2.852990 -51.569775 -11.035011 -4.478305 -11.325199 -31.420234 5.256582 0.000000 0.000000 0.000000 16.325506 0.802722 -0.740715 54.102524 1.700535 -7.342768 0.513092 29.769898 1.522610 0.000000 0.000000 0.000000 
-0.003792 0.942930 0.022357 -0.278469 6.601527 -0.190954 3.855151 -0.394666 -5.235368 -5.537110 -0.062723 39.502399 1.180026 6.138175 8.987092 0.000000 0.000000 0.000000 0.800975 1.530100 -15.388648 2.721837 -0.307091 15.397401 -0.756017 -5.417115 11.604644 0.000000 0.000000 0.000000 0.654087 -0.701410 13.073079 7.632159 -0.943476 -26.306364 -1.815129 -5.255908 28.414759 -4.125720 3.742739 -16.096793 0.000000 0.000000 0.000000 -24.855910 4.454408 -3.800675 -52.522651 -10.199706 -4.687209 -12.757988 -31.624550 5.643482 0.000000 0.000000 0.000000 15.102317 1.766910 0.066999 54.984931 3.961529 -6.426244 0.811808 29.345871 1.642356 0.000000 0.000000 0.000000 
-0.006006 0.944082 0.042532 0.496480 6.648338 -0.324269 3.761150 -0.644846 -9.096621 -6.601521 0.295022 44.213873 2.093398 6.987629 6.858048 0.000000 0.000000 0.000000 0.246494 1.189140 -12.278791 2.829661 -0.314559 12.729509 -0.822215 -5.165393 10.101849 0.000000 0.000000 0.000000 0.303956 -0.689779 13.677330 6.946470 -0.882630 -24.928507 -1.009806 -4.279144 27.092414 -3.887562 3.707194 -16.115759 0.000000 0.000000 0.000000 -25.059517 4.236057 -4.052701 -51.806954 -7.819212 -5.424287 -14.024947 -33.198757 6.216037 0.000000 0.000000 0.000000 14.512626 1.781936 0.252607 55.062062 4.680446 -5.969329 2.256798 29.541883 2.046916 0.000000 0.000000 0.000000 
-0.006957 0.947387 0.061171 0.887905 6.940229 0.022204 3.766557 -0.912573 -12.786722 -6.729067 0.270406 45.302945 2.899057 8.421321 6.801518 0.000000 0.000000 0.000000 0.318079 1.018758 -10.350797 2.327471 -0.201493 10.946666 -0.880706 -5.196895 9.921440 0.000000 0.000000 0.000000 -0.519317 -0.603016 13.969404 7.869990 -1.027090 -25.792509 -0.245667 -3.263481 27.906288 -4.361202 4.240760 -15.825342 0.000000 0.000000 0.000000 -25.053612 5.579326 -5.255294 -52.659648 -8.027866 -5.387849 -15.519232 -32.876496 6.549557 0.000000 0.000000 0.000000 12.092953 2.208965 0.763955 56.394393 6.095785 -5.493378 0.309083 29.834081 1.708247 0.000000 0.000000 0.000000 
-0.006685 0.949136 0.078621 1.199548 7.258269 -0.360204 3.546268 -1.075181 -14.575426 -6.313644 0.119016 41.595810 4.452478 10.442909 3.947629 0.000000 0.000000 0.000000 0.288815 0.788811 -7.913548 2.032947 -0.147715 9.545112 -0.976024 -5.240365 9.462026 0.000000 0.000000 0.000000 -0.760402 -0.584042 14.151696 7.529181 -0.956145 -25.634367 -0.162881 -1.821290 28.608219 -4.037159 4.275629 -15.382521 0.000000 0.000000 0.000000 -25.361663 4.504721 -5.158348 -52.032749 -6.941745 -5.737447 -15.674838 -33.006492 6.461259 0.000000 0.000000 0.000000 13.175526 3.201601 1.541397 54.903086 7.185357 -5.006330 -0.129132 30.437194 1.731953 0.000000 0.000000 0.000000 
-0.005149 0.951081 0.094340 2.019751 7.384406 -0.322858 2.874173 -1.318935 -16.520023 -6.308259 0.325556 35.123018 3.816048 8.167248 0.532997 0.000000 0.000000 0.000000 -0.108448 0.594295 -6.081470 1.215397 0.006855 8.314177 -1.010344 -5.212097 9.099843 0.000000 0.000000 0.000000 -1.882570 -0.449229 14.440228 8.085235 -1.083100 -25.684154 -0.150293 -1.285294 29.013881 -4.433369 4.673599 -16.427662 0.000000 0.000000 0.000000 -26.309364 5.251738 -6.010362 -51.954626 -6.444532 -5.880626 -15.087694 -31.992787 6.021959 0.000000 0.000000 0.000000 12.551041 3.880800 1.952293 54.721802 8.432863 -4.435501 -0.981341 30.999197 1.587004 0.000000 0.000000 0.000000 
